<svg width="20" height="20" viewBox="0 0 20 20" fill="none" xmlns="http://www.w3.org/2000/svg">
<path d="M12.6263 13.5626C12.7374 13.6876 12.8832 13.7501 13.0638 13.7501C13.2444 13.7501 13.3971 13.6806 13.5221 13.5417C13.661 13.4167 13.7305 13.2605 13.7305 13.073C13.7305 12.8855 13.668 12.7292 13.543 12.6042L10.6888 9.75008V6.16675C10.6888 6.00008 10.6298 5.85772 10.5117 5.73966C10.3937 5.62161 10.2444 5.56258 10.0638 5.56258C9.88325 5.56258 9.73394 5.62161 9.61589 5.73966C9.49783 5.85772 9.4388 6.00703 9.4388 6.18758V10.0001C9.4388 10.0834 9.45269 10.1598 9.48047 10.2292C9.50825 10.2987 9.54991 10.3681 9.60547 10.4376L12.6263 13.5626ZM10.0013 18.3334C8.86241 18.3334 7.78602 18.1147 6.77214 17.6772C5.75825 17.2397 4.87283 16.6424 4.11589 15.8855C3.35894 15.1286 2.76172 14.2431 2.32422 13.2292C1.88672 12.2154 1.66797 11.139 1.66797 10.0001C1.66797 8.86119 1.88672 7.7848 2.32422 6.77091C2.76172 5.75703 3.35894 4.87161 4.11589 4.11466C4.87283 3.35772 5.75825 2.7605 6.77214 2.323C7.78602 1.8855 8.86241 1.66675 10.0013 1.66675C11.1402 1.66675 12.2166 1.8855 13.2305 2.323C14.2444 2.7605 15.1298 3.35772 15.8867 4.11466C16.6437 4.87161 17.2409 5.75703 17.6784 6.77091C18.1159 7.7848 18.3346 8.86119 18.3346 10.0001C18.3346 11.139 18.1159 12.2154 17.6784 13.2292C17.2409 14.2431 16.6437 15.1286 15.8867 15.8855C15.1298 16.6424 14.2444 17.2397 13.2305 17.6772C12.2166 18.1147 11.1402 18.3334 10.0013 18.3334Z" fill="#F49300"/>
</svg>
