<svg width="20" height="14" viewBox="0 0 20 14" fill="none" xmlns="http://www.w3.org/2000/svg">
<path d="M1.41797 13.6667C1.23741 13.6667 1.08811 13.6077 0.970052 13.4897C0.851997 13.3716 0.792969 13.2223 0.792969 13.0417V11.7084C0.792969 11.2223 0.917969 10.7813 1.16797 10.3855C1.41797 9.98967 1.76519 9.69453 2.20964 9.50008C3.22352 9.05564 4.13672 8.73619 4.94922 8.54175C5.76172 8.3473 6.59852 8.25008 7.45963 8.25008C8.32075 8.25008 9.15408 8.3473 9.95963 8.54175C10.7652 8.73619 11.6749 9.05564 12.6888 9.50008C13.1332 9.69453 13.4839 9.98967 13.7409 10.3855C13.9978 10.7813 14.1263 11.2223 14.1263 11.7084V13.0417C14.1263 13.2223 14.0673 13.3716 13.9492 13.4897C13.8312 13.6077 13.6819 13.6667 13.5013 13.6667H1.41797ZM14.918 13.6667C15.0569 13.639 15.168 13.5661 15.2513 13.448C15.3346 13.3299 15.3763 13.1806 15.3763 13.0001V11.7084C15.3763 10.8334 15.1541 10.1147 14.7096 9.55217C14.2652 8.98967 13.6819 8.5348 12.9596 8.18758C13.918 8.29869 14.8207 8.46189 15.668 8.67717C16.5152 8.89244 17.2027 9.13897 17.7305 9.41675C18.1888 9.68064 18.5499 10.007 18.8138 10.3959C19.0777 10.7848 19.2096 11.2223 19.2096 11.7084V13.0417C19.2096 13.2223 19.1506 13.3716 19.0325 13.4897C18.9145 13.6077 18.7652 13.6667 18.5846 13.6667H14.918ZM7.45963 6.97925C6.54297 6.97925 5.79297 6.68758 5.20964 6.10425C4.6263 5.52092 4.33464 4.77092 4.33464 3.85425C4.33464 2.93758 4.6263 2.18758 5.20964 1.60425C5.79297 1.02091 6.54297 0.729248 7.45963 0.729248C8.3763 0.729248 9.1263 1.02091 9.70963 1.60425C10.293 2.18758 10.5846 2.93758 10.5846 3.85425C10.5846 4.77092 10.293 5.52092 9.70963 6.10425C9.1263 6.68758 8.3763 6.97925 7.45963 6.97925ZM14.9596 3.85425C14.9596 4.77092 14.668 5.52092 14.0846 6.10425C13.5013 6.68758 12.7513 6.97925 11.8346 6.97925C11.6819 6.97925 11.5117 6.96883 11.3242 6.948C11.1367 6.92717 10.9666 6.88897 10.8138 6.83342C11.1471 6.48619 11.4006 6.05911 11.5742 5.55217C11.7478 5.04522 11.8346 4.47925 11.8346 3.85425C11.8346 3.22925 11.7478 2.67717 11.5742 2.198C11.4006 1.71883 11.1471 1.27786 10.8138 0.875082C10.9666 0.833415 11.1367 0.798693 11.3242 0.770915C11.5117 0.743137 11.6819 0.729248 11.8346 0.729248C12.7513 0.729248 13.5013 1.02091 14.0846 1.60425C14.668 2.18758 14.9596 2.93758 14.9596 3.85425Z" fill="#307FF5"/>
</svg>
